<svg width="87" height="24" viewBox="0 0 87 24" fill="none" xmlns="http://www.w3.org/2000/svg">
<path d="M15.348 20.78V23.06H1.96805L1.48805 21.5C2.32805 20.56 2.94805 19.66 3.34805 18.8C3.76805 17.94 3.97805 16.88 3.97805 15.62C3.97805 15.1 3.88805 14.48 3.70805 13.76H0.318047V11.84H3.04805C2.78805 11.14 2.58805 10.48 2.44805 9.86C2.30805 9.22 2.23805 8.52 2.23805 7.76C2.23805 6.48 2.50805 5.37 3.04805 4.43C3.60805 3.47 4.37805 2.73 5.35805 2.21C6.35805 1.69 7.49805 1.43 8.77805 1.43C10.818 1.43 12.388 2.02 13.488 3.2C14.588 4.38 15.178 5.87 15.258 7.67H12.738C12.698 6.49 12.338 5.54 11.658 4.82C10.998 4.1 10.038 3.74 8.77805 3.74C7.61805 3.74 6.66805 4.08 5.92805 4.76C5.20805 5.44 4.84805 6.48 4.84805 7.88C4.84805 8.54 4.91805 9.17 5.05805 9.77C5.19805 10.35 5.40805 11.04 5.68805 11.84H11.508V13.76H6.28805C6.46805 14.48 6.55805 15.1 6.55805 15.62C6.55805 17.52 5.84805 19.24 4.42805 20.78H15.348ZM18.7416 3.8V1.31H24.3816V23H21.6216V3.8H18.7416ZM28.7409 20.81C31.2809 18.77 33.2709 17.1 34.7109 15.8C36.1509 14.48 37.3609 13.11 38.3409 11.69C39.3409 10.25 39.8409 8.84 39.8409 7.46C39.8409 6.16 39.5209 5.14 38.8809 4.4C38.2609 3.64 37.2509 3.26 35.8509 3.26C34.4909 3.26 33.4309 3.69 32.6709 4.55C31.9309 5.39 31.5309 6.52 31.4709 7.94H28.8309C28.9109 5.7 29.5909 3.97 30.8709 2.75C32.1509 1.53 33.8009 0.919998 35.8209 0.919998C37.8809 0.919998 39.5109 1.49 40.7109 2.63C41.9309 3.77 42.5409 5.34 42.5409 7.34C42.5409 9 42.0409 10.62 41.0409 12.2C40.0609 13.76 38.9409 15.14 37.6809 16.34C36.4209 17.52 34.8109 18.9 32.8509 20.48H43.1709V22.76H28.7409V20.81ZM47.6468 23.18C47.1268 23.18 46.6868 23 46.3268 22.64C45.9668 22.28 45.7868 21.84 45.7868 21.32C45.7868 20.8 45.9668 20.36 46.3268 20C46.6868 19.64 47.1268 19.46 47.6468 19.46C48.1468 19.46 48.5668 19.64 48.9068 20C49.2668 20.36 49.4468 20.8 49.4468 21.32C49.4468 21.84 49.2668 22.28 48.9068 22.64C48.5668 23 48.1468 23.18 47.6468 23.18ZM56.1356 17.18C56.3356 18.32 56.7956 19.2 57.5156 19.82C58.2556 20.44 59.2456 20.75 60.4856 20.75C62.1456 20.75 63.3656 20.1 64.1456 18.8C64.9456 17.5 65.3256 15.31 65.2856 12.23C64.8656 13.13 64.1656 13.84 63.1856 14.36C62.2056 14.86 61.1156 15.11 59.9156 15.11C58.5756 15.11 57.3756 14.84 56.3156 14.3C55.2756 13.74 54.4556 12.93 53.8556 11.87C53.2556 10.81 52.9556 9.53 52.9556 8.03C52.9556 5.89 53.5756 4.17 54.8156 2.87C56.0556 1.55 57.8156 0.889999 60.0956 0.889999C62.8956 0.889999 64.8556 1.8 65.9756 3.62C67.1156 5.44 67.6856 8.15 67.6856 11.75C67.6856 14.27 67.4556 16.35 66.9956 17.99C66.5556 19.63 65.7956 20.88 64.7156 21.74C63.6556 22.6 62.1956 23.03 60.3356 23.03C58.2956 23.03 56.7056 22.48 55.5656 21.38C54.4256 20.28 53.7756 18.88 53.6156 17.18H56.1356ZM60.3656 12.8C61.7056 12.8 62.8056 12.39 63.6656 11.57C64.5256 10.73 64.9556 9.6 64.9556 8.18C64.9556 6.68 64.5356 5.47 63.6956 4.55C62.8556 3.63 61.6756 3.17 60.1556 3.17C58.7556 3.17 57.6356 3.61 56.7956 4.49C55.9756 5.37 55.5656 6.53 55.5656 7.97C55.5656 9.43 55.9756 10.6 56.7956 11.48C57.6156 12.36 58.8056 12.8 60.3656 12.8ZM75.0321 17.18C75.2321 18.32 75.6921 19.2 76.4121 19.82C77.1521 20.44 78.1421 20.75 79.3821 20.75C81.0421 20.75 82.2621 20.1 83.0421 18.8C83.8421 17.5 84.2221 15.31 84.1821 12.23C83.7621 13.13 83.0621 13.84 82.0821 14.36C81.1021 14.86 80.0121 15.11 78.8121 15.11C77.4721 15.11 76.2721 14.84 75.2121 14.3C74.1721 13.74 73.3521 12.93 72.7521 11.87C72.1521 10.81 71.8521 9.53 71.8521 8.03C71.8521 5.89 72.4721 4.17 73.7121 2.87C74.9521 1.55 76.7121 0.889999 78.9921 0.889999C81.7921 0.889999 83.7521 1.8 84.8721 3.62C86.0121 5.44 86.5821 8.15 86.5821 11.75C86.5821 14.27 86.3521 16.35 85.8921 17.99C85.4521 19.63 84.6921 20.88 83.6121 21.74C82.5521 22.6 81.0921 23.03 79.2321 23.03C77.1921 23.03 75.6021 22.48 74.4621 21.38C73.3221 20.28 72.6721 18.88 72.5121 17.18H75.0321ZM79.2621 12.8C80.6021 12.8 81.7021 12.39 82.5621 11.57C83.4221 10.73 83.8521 9.6 83.8521 8.18C83.8521 6.68 83.4321 5.47 82.5921 4.55C81.7521 3.63 80.5721 3.17 79.0521 3.17C77.6521 3.17 76.5321 3.61 75.6921 4.49C74.8721 5.37 74.4621 6.53 74.4621 7.97C74.4621 9.43 74.8721 10.6 75.6921 11.48C76.5121 12.36 77.7021 12.8 79.2621 12.8Z" fill="#263238"/>
</svg>
