<svg width="96" height="24" viewBox="0 0 96 24" fill="none" xmlns="http://www.w3.org/2000/svg">
<path d="M15.348 20.78V23.06H1.96805L1.48805 21.5C2.32805 20.56 2.94805 19.66 3.34805 18.8C3.76805 17.94 3.97805 16.88 3.97805 15.62C3.97805 15.1 3.88805 14.48 3.70805 13.76H0.318047V11.84H3.04805C2.78805 11.14 2.58805 10.48 2.44805 9.86C2.30805 9.22 2.23805 8.52 2.23805 7.76C2.23805 6.48 2.50805 5.37 3.04805 4.43C3.60805 3.47 4.37805 2.73 5.35805 2.21C6.35805 1.69 7.49805 1.43 8.77805 1.43C10.818 1.43 12.388 2.02 13.488 3.2C14.588 4.38 15.178 5.87 15.258 7.67H12.738C12.698 6.49 12.338 5.54 11.658 4.82C10.998 4.1 10.038 3.74 8.77805 3.74C7.61805 3.74 6.66805 4.08 5.92805 4.76C5.20805 5.44 4.84805 6.48 4.84805 7.88C4.84805 8.54 4.91805 9.17 5.05805 9.77C5.19805 10.35 5.40805 11.04 5.68805 11.84H11.508V13.76H6.28805C6.46805 14.48 6.55805 15.1 6.55805 15.62C6.55805 17.52 5.84805 19.24 4.42805 20.78H15.348ZM19.1316 20.81C21.6716 18.77 23.6616 17.1 25.1016 15.8C26.5416 14.48 27.7516 13.11 28.7316 11.69C29.7316 10.25 30.2316 8.84 30.2316 7.46C30.2316 6.16 29.9116 5.14 29.2716 4.4C28.6516 3.64 27.6416 3.26 26.2416 3.26C24.8816 3.26 23.8216 3.69 23.0616 4.55C22.3216 5.39 21.9216 6.52 21.8616 7.94H19.2216C19.3016 5.7 19.9816 3.97 21.2616 2.75C22.5416 1.53 24.1916 0.919998 26.2116 0.919998C28.2716 0.919998 29.9016 1.49 31.1016 2.63C32.3216 3.77 32.9316 5.34 32.9316 7.34C32.9316 9 32.4316 10.62 31.4316 12.2C30.4516 13.76 29.3316 15.14 28.0716 16.34C26.8116 17.52 25.2016 18.9 23.2416 20.48H33.5616V22.76H19.1316V20.81ZM36.7174 11.93C36.7174 8.49 37.2774 5.81 38.3974 3.89C39.5174 1.95 41.4774 0.979999 44.2774 0.979999C47.0574 0.979999 49.0074 1.95 50.1274 3.89C51.2474 5.81 51.8074 8.49 51.8074 11.93C51.8074 15.43 51.2474 18.15 50.1274 20.09C49.0074 22.03 47.0574 23 44.2774 23C41.4774 23 39.5174 22.03 38.3974 20.09C37.2774 18.15 36.7174 15.43 36.7174 11.93ZM49.1074 11.93C49.1074 10.19 48.9874 8.72 48.7474 7.52C48.5274 6.3 48.0574 5.32 47.3374 4.58C46.6374 3.84 45.6174 3.47 44.2774 3.47C42.9174 3.47 41.8774 3.84 41.1574 4.58C40.4574 5.32 39.9874 6.3 39.7474 7.52C39.5274 8.72 39.4174 10.19 39.4174 11.93C39.4174 13.73 39.5274 15.24 39.7474 16.46C39.9874 17.68 40.4574 18.66 41.1574 19.4C41.8774 20.14 42.9174 20.51 44.2774 20.51C45.6174 20.51 46.6374 20.14 47.3374 19.4C48.0574 18.66 48.5274 17.68 48.7474 16.46C48.9874 15.24 49.1074 13.73 49.1074 11.93ZM56.8753 23.18C56.3553 23.18 55.9153 23 55.5553 22.64C55.1953 22.28 55.0153 21.84 55.0153 21.32C55.0153 20.8 55.1953 20.36 55.5553 20C55.9153 19.64 56.3553 19.46 56.8753 19.46C57.3753 19.46 57.7953 19.64 58.1353 20C58.4953 20.36 58.6753 20.8 58.6753 21.32C58.6753 21.84 58.4953 22.28 58.1353 22.64C57.7953 23 57.3753 23.18 56.8753 23.18ZM65.3641 17.18C65.5641 18.32 66.0241 19.2 66.7441 19.82C67.4841 20.44 68.4741 20.75 69.7141 20.75C71.3741 20.75 72.5941 20.1 73.3741 18.8C74.1741 17.5 74.5541 15.31 74.5141 12.23C74.0941 13.13 73.3941 13.84 72.4141 14.36C71.4341 14.86 70.3441 15.11 69.1441 15.11C67.8041 15.11 66.6041 14.84 65.5441 14.3C64.5041 13.74 63.6841 12.93 63.0841 11.87C62.4841 10.81 62.1841 9.53 62.1841 8.03C62.1841 5.89 62.8041 4.17 64.0441 2.87C65.2841 1.55 67.0441 0.889999 69.3241 0.889999C72.1241 0.889999 74.0841 1.8 75.2041 3.62C76.3441 5.44 76.9141 8.15 76.9141 11.75C76.9141 14.27 76.6841 16.35 76.2241 17.99C75.7841 19.63 75.0241 20.88 73.9441 21.74C72.8841 22.6 71.4241 23.03 69.5641 23.03C67.5241 23.03 65.9341 22.48 64.7941 21.38C63.6541 20.28 63.0041 18.88 62.8441 17.18H65.3641ZM69.5941 12.8C70.9341 12.8 72.0341 12.39 72.8941 11.57C73.7541 10.73 74.1841 9.6 74.1841 8.18C74.1841 6.68 73.7641 5.47 72.9241 4.55C72.0841 3.63 70.9041 3.17 69.3841 3.17C67.9841 3.17 66.8641 3.61 66.0241 4.49C65.2041 5.37 64.7941 6.53 64.7941 7.97C64.7941 9.43 65.2041 10.6 66.0241 11.48C66.8441 12.36 68.0341 12.8 69.5941 12.8ZM84.2606 17.18C84.4606 18.32 84.9206 19.2 85.6406 19.82C86.3806 20.44 87.3706 20.75 88.6106 20.75C90.2706 20.75 91.4906 20.1 92.2706 18.8C93.0706 17.5 93.4506 15.31 93.4106 12.23C92.9906 13.13 92.2906 13.84 91.3106 14.36C90.3306 14.86 89.2406 15.11 88.0406 15.11C86.7006 15.11 85.5006 14.84 84.4406 14.3C83.4006 13.74 82.5806 12.93 81.9806 11.87C81.3806 10.81 81.0806 9.53 81.0806 8.03C81.0806 5.89 81.7006 4.17 82.9406 2.87C84.1806 1.55 85.9406 0.889999 88.2206 0.889999C91.0206 0.889999 92.9806 1.8 94.1006 3.62C95.2406 5.44 95.8106 8.15 95.8106 11.75C95.8106 14.27 95.5806 16.35 95.1206 17.99C94.6806 19.63 93.9206 20.88 92.8406 21.74C91.7806 22.6 90.3206 23.03 88.4606 23.03C86.4206 23.03 84.8306 22.48 83.6906 21.38C82.5506 20.28 81.9006 18.88 81.7406 17.18H84.2606ZM88.4906 12.8C89.8306 12.8 90.9306 12.39 91.7906 11.57C92.6506 10.73 93.0806 9.6 93.0806 8.18C93.0806 6.68 92.6606 5.47 91.8206 4.55C90.9806 3.63 89.8006 3.17 88.2806 3.17C86.8806 3.17 85.7606 3.61 84.9206 4.49C84.1006 5.37 83.6906 6.53 83.6906 7.97C83.6906 9.43 84.1006 10.6 84.9206 11.48C85.7406 12.36 86.9306 12.8 88.4906 12.8Z" fill="#263238"/>
</svg>
