<svg width="79" height="24" viewBox="0 0 79 24" fill="none" xmlns="http://www.w3.org/2000/svg">
<path d="M15.348 20.78V23.06H1.96805L1.48805 21.5C2.32805 20.56 2.94805 19.66 3.34805 18.8C3.76805 17.94 3.97805 16.88 3.97805 15.62C3.97805 15.1 3.88805 14.48 3.70805 13.76H0.318047V11.84H3.04805C2.78805 11.14 2.58805 10.48 2.44805 9.86C2.30805 9.22 2.23805 8.52 2.23805 7.76C2.23805 6.48 2.50805 5.37 3.04805 4.43C3.60805 3.47 4.37805 2.73 5.35805 2.21C6.35805 1.69 7.49805 1.43 8.77805 1.43C10.818 1.43 12.388 2.02 13.488 3.2C14.588 4.38 15.178 5.87 15.258 7.67H12.738C12.698 6.49 12.338 5.54 11.658 4.82C10.998 4.1 10.038 3.74 8.77805 3.74C7.61805 3.74 6.66805 4.08 5.92805 4.76C5.20805 5.44 4.84805 6.48 4.84805 7.88C4.84805 8.54 4.91805 9.17 5.05805 9.77C5.19805 10.35 5.40805 11.04 5.68805 11.84H11.508V13.76H6.28805C6.46805 14.48 6.55805 15.1 6.55805 15.62C6.55805 17.52 5.84805 19.24 4.42805 20.78H15.348ZM33.2916 3.68H22.7616V10.52C23.2216 9.88 23.9016 9.36 24.8016 8.96C25.7016 8.54 26.6716 8.33 27.7116 8.33C29.3716 8.33 30.7216 8.68 31.7616 9.38C32.8016 10.06 33.5416 10.95 33.9816 12.05C34.4416 13.13 34.6716 14.28 34.6716 15.5C34.6716 16.94 34.4016 18.23 33.8616 19.37C33.3216 20.51 32.4916 21.41 31.3716 22.07C30.2716 22.73 28.9016 23.06 27.2616 23.06C25.1616 23.06 23.4616 22.52 22.1616 21.44C20.8616 20.36 20.0716 18.92 19.7916 17.12H22.4616C22.7216 18.26 23.2716 19.15 24.1116 19.79C24.9516 20.43 26.0116 20.75 27.2916 20.75C28.8716 20.75 30.0616 20.28 30.8616 19.34C31.6616 18.38 32.0616 17.12 32.0616 15.56C32.0616 14 31.6616 12.8 30.8616 11.96C30.0616 11.1 28.8816 10.67 27.3216 10.67C26.2616 10.67 25.3316 10.93 24.5316 11.45C23.7516 11.95 23.1816 12.64 22.8216 13.52H20.2416V1.28H33.2916V3.68ZM39.6195 23.18C39.0995 23.18 38.6595 23 38.2995 22.64C37.9395 22.28 37.7595 21.84 37.7595 21.32C37.7595 20.8 37.9395 20.36 38.2995 20C38.6595 19.64 39.0995 19.46 39.6195 19.46C40.1195 19.46 40.5395 19.64 40.8795 20C41.2395 20.36 41.4195 20.8 41.4195 21.32C41.4195 21.84 41.2395 22.28 40.8795 22.64C40.5395 23 40.1195 23.18 39.6195 23.18ZM48.1083 17.18C48.3083 18.32 48.7683 19.2 49.4883 19.82C50.2283 20.44 51.2183 20.75 52.4583 20.75C54.1183 20.75 55.3383 20.1 56.1183 18.8C56.9183 17.5 57.2983 15.31 57.2583 12.23C56.8383 13.13 56.1383 13.84 55.1583 14.36C54.1783 14.86 53.0883 15.11 51.8883 15.11C50.5483 15.11 49.3483 14.84 48.2883 14.3C47.2483 13.74 46.4283 12.93 45.8283 11.87C45.2283 10.81 44.9283 9.53 44.9283 8.03C44.9283 5.89 45.5483 4.17 46.7883 2.87C48.0283 1.55 49.7883 0.889999 52.0683 0.889999C54.8683 0.889999 56.8283 1.8 57.9483 3.62C59.0883 5.44 59.6583 8.15 59.6583 11.75C59.6583 14.27 59.4283 16.35 58.9683 17.99C58.5283 19.63 57.7683 20.88 56.6883 21.74C55.6283 22.6 54.1683 23.03 52.3083 23.03C50.2683 23.03 48.6783 22.48 47.5383 21.38C46.3983 20.28 45.7483 18.88 45.5883 17.18H48.1083ZM52.3383 12.8C53.6783 12.8 54.7783 12.39 55.6383 11.57C56.4983 10.73 56.9283 9.6 56.9283 8.18C56.9283 6.68 56.5083 5.47 55.6683 4.55C54.8283 3.63 53.6483 3.17 52.1283 3.17C50.7283 3.17 49.6083 3.61 48.7683 4.49C47.9483 5.37 47.5383 6.53 47.5383 7.97C47.5383 9.43 47.9483 10.6 48.7683 11.48C49.5883 12.36 50.7783 12.8 52.3383 12.8ZM67.0048 17.18C67.2048 18.32 67.6648 19.2 68.3848 19.82C69.1248 20.44 70.1148 20.75 71.3548 20.75C73.0148 20.75 74.2348 20.1 75.0148 18.8C75.8148 17.5 76.1948 15.31 76.1548 12.23C75.7348 13.13 75.0348 13.84 74.0548 14.36C73.0748 14.86 71.9848 15.11 70.7848 15.11C69.4448 15.11 68.2448 14.84 67.1848 14.3C66.1448 13.74 65.3248 12.93 64.7248 11.87C64.1248 10.81 63.8248 9.53 63.8248 8.03C63.8248 5.89 64.4448 4.17 65.6848 2.87C66.9248 1.55 68.6848 0.889999 70.9648 0.889999C73.7648 0.889999 75.7248 1.8 76.8448 3.62C77.9848 5.44 78.5548 8.15 78.5548 11.75C78.5548 14.27 78.3248 16.35 77.8648 17.99C77.4248 19.63 76.6648 20.88 75.5848 21.74C74.5248 22.6 73.0648 23.03 71.2048 23.03C69.1648 23.03 67.5748 22.48 66.4348 21.38C65.2948 20.28 64.6448 18.88 64.4848 17.18H67.0048ZM71.2348 12.8C72.5748 12.8 73.6748 12.39 74.5348 11.57C75.3948 10.73 75.8248 9.6 75.8248 8.18C75.8248 6.68 75.4048 5.47 74.5648 4.55C73.7248 3.63 72.5448 3.17 71.0248 3.17C69.6248 3.17 68.5048 3.61 67.6648 4.49C66.8448 5.37 66.4348 6.53 66.4348 7.97C66.4348 9.43 66.8448 10.6 67.6648 11.48C68.4848 12.36 69.6748 12.8 71.2348 12.8Z" fill="#263238"/>
</svg>
